# xmcd CD database file
#
# Track frame offsets:
#	150
#	35885
#	58079
#	88607
#	116029
#	134090
#	160018
#	195143
#	224204
#
# Disc length: 3229 seconds
#
# Revision: 0
# Processed by: cddbd v1.5.2PL0 Copyright (c) Steve Scherf et al.
# Submitted via: CDex 1.91
#
DISCID=880c9b09
DTITLE=Jeffrey Parks - Under Moving Skies
DYEAR=2011
DGENRE=New Age
TTITLE0=Daybreak
TTITLE1=Under Moving Skies
TTITLE2=Tell Me About Carol
TTITLE3=Map of the Evening Sky
TTITLE4=October
TTITLE5=Rain
TTITLE6=The Four Season's
TTITLE7=Malena's Lulluaby
TTITLE8=Nightfall
EXTD=YEAR: 2011
EXTT0=
EXTT1=
EXTT2=
EXTT3=
EXTT4=
EXTT5=
EXTT6=
EXTT7=
EXTT8=
PLAYORDER=
